<?xml version="1.0" encoding="UTF-8"?>
<!DOCTYPE svg
PUBLIC "-//W3C//DTD SVG 1.1//EN"
       "http://www.w3.org/Graphics/SVG/1.1/DTD/svg11.dtd">
<svg viewBox="195 55 738 540" width="543px" height="485px" xmlns="http://www.w3.org/2000/svg" version="1.1">
   <line x1="581" y1="495" x2="571" y2="495" style="stroke:#0b0;stroke-width:1;"/>
   <line x1="571" y1="435" x2="581" y2="435" style="stroke:#0b0;stroke-width:1;"/>
   <line x1="571" y1="495" x2="571" y2="435" style="stroke:#0b0;stroke-width:1;"/>
   <line x1="573.5" y1="495" x2="577.03553390593" y2="498.53553390593" style="stroke:#0b0;stroke-width:2;"/>
   <line x1="573.5" y1="495" x2="577.03553390593" y2="491.46446609407" style="stroke:#0b0;stroke-width:2;"/>
   <line x1="576" y1="435" x2="572.46446609407" y2="438.53553390593" style="stroke:#0b0;stroke-width:2;"/>
   <line x1="576" y1="435" x2="572.46446609407" y2="431.46446609407" style="stroke:#0b0;stroke-width:2;"/>
   <line x1="581" y1="515" x2="571" y2="515" style="stroke:#b0b;stroke-width:1;"/>
   <line x1="582" y1="261" x2="592" y2="261" style="stroke:#b0b;stroke-width:1;"/>
   <line x1="571" y1="515" x2="582" y2="261" style="stroke:#b0b;stroke-width:1;"/>
   <line x1="573.5" y1="515" x2="577.03553390593" y2="518.53553390593" style="stroke:#b0b;stroke-width:2;"/>
   <line x1="573.5" y1="515" x2="577.03553390593" y2="511.46446609407" style="stroke:#b0b;stroke-width:2;"/>
   <line x1="587" y1="261" x2="583.46446609407" y2="264.53553390593" style="stroke:#b0b;stroke-width:2;"/>
   <line x1="587" y1="261" x2="583.46446609407" y2="257.46446609407" style="stroke:#b0b;stroke-width:2;"/>
   <line x1="328" y1="140" x2="338" y2="140" style="stroke:#0b0;stroke-width:1;"/>
   <line x1="498" y1="101" x2="508" y2="101" style="stroke:#0b0;stroke-width:1;"/>
   <line x1="338" y1="140" x2="498" y2="101" style="stroke:#0b0;stroke-width:1;"/>
   <line x1="335.5" y1="140" x2="331.96446609407" y2="143.53553390593" style="stroke:#0b0;stroke-width:2;"/>
   <line x1="335.5" y1="140" x2="331.96446609407" y2="136.46446609407" style="stroke:#0b0;stroke-width:2;"/>
   <line x1="503" y1="101" x2="499.46446609407" y2="104.53553390593" style="stroke:#0b0;stroke-width:2;"/>
   <line x1="503" y1="101" x2="499.46446609407" y2="97.464466094067" style="stroke:#0b0;stroke-width:2;"/>
   <line x1="211" y1="262" x2="201" y2="262" style="stroke:#0bf;stroke-width:1;"/>
   <line x1="200" y1="100" x2="210" y2="100" style="stroke:#0bf;stroke-width:1;"/>
   <line x1="201" y1="262" x2="200" y2="100" style="stroke:#0bf;stroke-width:1;"/>
   <line x1="203.5" y1="262" x2="207.03553390593" y2="265.53553390593" style="stroke:#0bf;stroke-width:2;"/>
   <line x1="203.5" y1="262" x2="207.03553390593" y2="258.46446609407" style="stroke:#0bf;stroke-width:2;"/>
   <line x1="205" y1="100" x2="201.46446609407" y2="103.53553390593" style="stroke:#0bf;stroke-width:2;"/>
   <line x1="205" y1="100" x2="201.46446609407" y2="96.464466094067" style="stroke:#0bf;stroke-width:2;"/>
   <line x1="211" y1="282" x2="201" y2="282" style="stroke:#0b0;stroke-width:1;"/>
   <line x1="202" y1="437" x2="212" y2="437" style="stroke:#0b0;stroke-width:1;"/>
   <line x1="201" y1="282" x2="202" y2="437" style="stroke:#0b0;stroke-width:1;"/>
   <line x1="203.5" y1="282" x2="207.03553390593" y2="285.53553390593" style="stroke:#0b0;stroke-width:2;"/>
   <line x1="203.5" y1="282" x2="207.03553390593" y2="278.46446609407" style="stroke:#0b0;stroke-width:2;"/>
   <line x1="207" y1="437" x2="203.46446609407" y2="440.53553390593" style="stroke:#0b0;stroke-width:2;"/>
   <line x1="207" y1="437" x2="203.46446609407" y2="433.46446609407" style="stroke:#0b0;stroke-width:2;"/>
   <rect width="100" height="20" x="508" y="71" style="fill:#007;stroke:black;"/>
   <text width="100" height="20" x="513" y="85" style="fill:#fff;" font-family="Arial" font-size="16px"> CLIENTES</text>
   <rect width="100" height="20" x="508" y="91" style="fill:#aea;stroke:black;"/>
   <text width="100" height="20" x="513" y="105" style="fill:black;" font-family="Arial" font-size="16px">COD</text>
   <rect width="100" height="20" x="508" y="111" style="fill:none;stroke:black;"/>
   <text width="100" height="20" x="513" y="125" style="fill:black;" font-family="Arial" font-size="16px">NOMBRE</text>
   <rect width="100" height="20" x="508" y="131" style="fill:none;stroke:black;"/>
   <text width="100" height="20" x="513" y="145" style="fill:black;" font-family="Arial" font-size="16px">DIRECCION</text>
   <rect width="115" height="20" x="581" y="405" style="fill:#007;stroke:black;"/>
   <text width="115" height="20" x="586" y="419" style="fill:#fff;" font-family="Arial" font-size="16px"> EMPLEADOS</text>
   <rect width="115" height="20" x="581" y="425" style="fill:#aea;stroke:black;"/>
   <text width="115" height="20" x="586" y="439" style="fill:black;" font-family="Arial" font-size="16px">COD</text>
   <rect width="115" height="20" x="581" y="445" style="fill:none;stroke:black;"/>
   <text width="115" height="20" x="586" y="459" style="fill:black;" font-family="Arial" font-size="16px">NOMBRE</text>
   <rect width="115" height="20" x="581" y="465" style="fill:none;stroke:black;"/>
   <text width="115" height="20" x="586" y="479" style="fill:black;" font-family="Arial" font-size="16px">DIRECCION</text>
   <rect width="115" height="20" x="581" y="485" style="fill:none;stroke:black;"/>
   <text width="115" height="20" x="586" y="499" style="fill:black;" font-family="Arial" font-size="16px">COD_JEFE</text>
   <rect width="115" height="20" x="581" y="505" style="fill:none;stroke:black;"/>
   <text width="115" height="20" x="586" y="519" style="fill:black;" font-family="Arial" font-size="16px">COD_OFICINA</text>
   <rect width="131" height="20" x="592" y="231" style="fill:#007;stroke:black;"/>
   <text width="131" height="20" x="597" y="245" style="fill:#fff;" font-family="Arial" font-size="16px"> OFICINAS</text>
   <rect width="131" height="20" x="592" y="251" style="fill:#aea;stroke:black;"/>
   <text width="131" height="20" x="597" y="265" style="fill:black;" font-family="Arial" font-size="16px">COD</text>
   <rect width="131" height="20" x="592" y="271" style="fill:none;stroke:black;"/>
   <text width="131" height="20" x="597" y="285" style="fill:black;" font-family="Arial" font-size="16px">CIUDAD</text>
   <rect width="131" height="20" x="592" y="291" style="fill:none;stroke:black;"/>
   <text width="131" height="20" x="597" y="305" style="fill:black;" font-family="Arial" font-size="16px">PRESUPUESTO</text>
   <rect width="131" height="20" x="592" y="311" style="fill:none;stroke:black;"/>
   <text width="131" height="20" x="597" y="325" style="fill:black;" font-family="Arial" font-size="16px">NUM_PUESTOS</text>
   <rect width="131" height="20" x="592" y="331" style="fill:none;stroke:black;"/>
   <text width="131" height="20" x="597" y="345" style="fill:black;" font-family="Arial" font-size="16px">TIPO</text>
   <rect width="118" height="20" x="210" y="70" style="fill:#007;stroke:black;"/>
   <text width="118" height="20" x="215" y="84" style="fill:#fff;" font-family="Arial" font-size="16px"> PEDIDOS</text>
   <rect width="118" height="20" x="210" y="90" style="fill:#aea;stroke:black;"/>
   <text width="118" height="20" x="215" y="104" style="fill:black;" font-family="Arial" font-size="16px">COD</text>
   <rect width="118" height="20" x="210" y="110" style="fill:none;stroke:black;"/>
   <text width="118" height="20" x="215" y="124" style="fill:black;" font-family="Arial" font-size="16px">FECHA</text>
   <rect width="118" height="20" x="210" y="130" style="fill:none;stroke:black;"/>
   <text width="118" height="20" x="215" y="144" style="fill:black;" font-family="Arial" font-size="16px">COD_CLIENTE</text>
   <rect width="191" height="20" x="211" y="232" style="fill:#007;stroke:black;"/>
   <text width="191" height="20" x="216" y="246" style="fill:#fff;" font-family="Arial" font-size="16px"> PEDIDOS_PRODUCTOS</text>
   <rect width="191" height="20" x="211" y="252" style="fill:#aea;stroke:black;"/>
   <text width="191" height="20" x="216" y="266" style="fill:black;" font-family="Arial" font-size="16px">COD_PEDIDO</text>
   <rect width="191" height="20" x="211" y="272" style="fill:#aea;stroke:black;"/>
   <text width="191" height="20" x="216" y="286" style="fill:black;" font-family="Arial" font-size="16px">COD_PRODUCTO</text>
   <rect width="191" height="20" x="211" y="292" style="fill:none;stroke:black;"/>
   <text width="191" height="20" x="216" y="306" style="fill:black;" font-family="Arial" font-size="16px">UNIDADES</text>
   <rect width="108" height="20" x="212" y="407" style="fill:#007;stroke:black;"/>
   <text width="108" height="20" x="217" y="421" style="fill:#fff;" font-family="Arial" font-size="16px"> PRODUCTOS</text>
   <rect width="108" height="20" x="212" y="427" style="fill:#aea;stroke:black;"/>
   <text width="108" height="20" x="217" y="441" style="fill:black;" font-family="Arial" font-size="16px">COD</text>
   <rect width="108" height="20" x="212" y="447" style="fill:none;stroke:black;"/>
   <text width="108" height="20" x="217" y="461" style="fill:black;" font-family="Arial" font-size="16px">NOMBRE</text>
   <rect width="108" height="20" x="212" y="467" style="fill:none;stroke:black;"/>
   <text width="108" height="20" x="217" y="481" style="fill:black;" font-family="Arial" font-size="16px">PVP</text>
   <rect width="108" height="20" x="212" y="487" style="fill:none;stroke:black;"/>
   <text width="108" height="20" x="217" y="501" style="fill:black;" font-family="Arial" font-size="16px">STOCK</text>
</svg>
